<?xml version="1.0" encoding="UTF-8"?>
<svg viewBox="0 0 240 240" xmlns="http://www.w3.org/2000/svg">
  <!-- Background gradient -->
  <defs>
    <linearGradient id="bgGradient" x1="0%" y1="0%" x2="100%" y2="100%">
      <stop offset="0%" stop-color="#2c3e50" />
      <stop offset="100%" stop-color="#1a1a2e" />
    </linearGradient>
    <filter id="glow" x="-20%" y="-20%" width="140%" height="140%">
      <feGaussianBlur stdDeviation="4" result="blur" />
      <feComposite in="SourceGraphic" in2="blur" operator="over" />
    </filter>
  </defs>
  
  <!-- Background -->
  <rect x="10" y="10" width="220" height="220" rx="30" ry="30" fill="url(#bgGradient)" />
  
  <!-- Decorative elements -->
  <circle cx="35" cy="35" r="8" fill="#e74c3c" opacity="0.8" />
  <circle cx="205" cy="35" r="8" fill="#3498db" opacity="0.8" />
  <circle cx="35" cy="205" r="8" fill="#2ecc71" opacity="0.8" />
  <circle cx="205" cy="205" r="8" fill="#f39c12" opacity="0.8" />
  
  <!-- Grid lines -->
  <path d="M40,120 L200,120 M120,40 L120,200" stroke="#6c5ce7" stroke-width="1" stroke-dasharray="2 4" opacity="0.3" />
  
  <!-- Broken page symbol -->
  <g transform="translate(120, 100)">
    <!-- Paper shape with torn corner -->
    <path d="M-40,-50 L20,-50 L40,-30 L40,50 L-40,50 Z" fill="#e0e0e0" />
    <path d="M20,-50 L20,-30 L40,-30" fill="none" stroke="#a0a0a0" stroke-width="1.5" />
    
    <!-- Torn edge effect -->
    <path d="M-40,50 C-35,48 -30,52 -25,50 C-20,48 -15,52 -10,50 C-5,48 0,52 5,50 C10,48 15,52 20,50 C25,48 30,52 35,50 C40,48 45,52 50,50" 
          fill="none" stroke="#e0e0e0" stroke-width="3" />
          
    <!-- Page lines -->
    <line x1="-30" y1="-30" x2="30" y2="-30" stroke="#a0a0a0" stroke-width="2" opacity="0.7" />
    <line x1="-30" y1="-15" x2="30" y2="-15" stroke="#a0a0a0" stroke-width="2" opacity="0.7" />
    <line x1="-30" y1="0" x2="30" y2="0" stroke="#a0a0a0" stroke-width="2" opacity="0.7" />
    <line x1="-30" y1="15" x2="10" y2="15" stroke="#a0a0a0" stroke-width="2" opacity="0.7" />
  </g>
  
  <!-- 404 Text with glitch effect -->
  <g filter="url(#glow)">
    <text x="120" y="140" font-family="'Courier New', monospace" font-size="42" font-weight="bold" text-anchor="middle" fill="#e74c3c">404</text>
    <!-- Glitch effect layers -->
    <text x="122" y="140" font-family="'Courier New', monospace" font-size="42" font-weight="bold" text-anchor="middle" fill="#3498db" opacity="0.6">404</text>
    <text x="118" y="140" font-family="'Courier New', monospace" font-size="42" font-weight="bold" text-anchor="middle" fill="#2ecc71" opacity="0.6">404</text>
  </g>
  
  <!-- Not Found Text -->
  <text x="120" y="170" font-family="'Arial', sans-serif" font-size="16" letter-spacing="2" text-anchor="middle" fill="#ecf0f1">NOT_FOUND</text>
  
  <!-- Error scanning line animation -->
  <line x1="40" y1="185" x2="200" y2="185" stroke="#e74c3c" stroke-width="2" opacity="0.7">
    <animate attributeName="y1" values="185;190;185" dur="4s" repeatCount="indefinite" />
    <animate attributeName="y2" values="185;190;185" dur="4s" repeatCount="indefinite" />
    <animate attributeName="opacity" values="0.7;0.9;0.7" dur="4s" repeatCount="indefinite" />
  </line>
  
  <!-- Binary code in background -->
  <text x="50" y="210" font-family="monospace" font-size="8" fill="#ecf0f1" opacity="0.3">10010110 01001100 11100101</text>
</svg>